<?xml version="1.0" encoding="utf-8"?>
<!-- Generator: Adobe Illustrator 27.5.0, SVG Export Plug-In . SVG Version: 6.00 Build 0)  -->
<svg version="1.1" id="Camada_1" xmlns="http://www.w3.org/2000/svg" xmlns:xlink="http://www.w3.org/1999/xlink" x="0px" y="0px"
	 viewBox="0 0 1366 768" style="enable-background:new 0 0 1366 768;" xml:space="preserve">
<style type="text/css">
	.st0{fill:url(#SVGID_1_);}
	.st1{fill:url(#SVGID_00000090989029181234611050000000717136864199673252_);}
	.st2{fill:url(#SVGID_00000045600740636264716910000004394191604173981883_);}
	.st3{fill:url(#SVGID_00000161598709673112204180000016366412725227954341_);}
	.st4{fill:url(#SVGID_00000057841115721908931140000000482345701564643233_);}
	.st5{fill:url(#SVGID_00000042733703588885075010000013623309737457838751_);}
	.st6{fill:url(#SVGID_00000105396743525972055280000004027885371889782674_);}
	.st7{fill:url(#SVGID_00000178918078270873384400000006765152504672166281_);}
	.st8{fill:url(#SVGID_00000067943492924580534160000012778440584873915043_);}
	.st9{fill:url(#SVGID_00000042714990348782834470000012212098496664247192_);}
</style>
<g>
	<g>
		<g>
			<linearGradient id="SVGID_1_" gradientUnits="userSpaceOnUse" x1="245.0396" y1="360.3961" x2="1120.9603" y2="360.3961">
				<stop  offset="0" style="stop-color:#3D6E3D"/>
				<stop  offset="0.995" style="stop-color:#22336C"/>
			</linearGradient>
			<path class="st0" d="M515.49,280.91h-11.73c-19.41,0-35.14,15.73-35.14,35.14v62.47c-0.16,22.62-10.05,38.6-32.11,39.3
				c-23.26-0.39-33.16-15.36-32.11-39.3c0,0,0-97.61,0-97.61h-10.46c-20.41,0-36.96,16.55-36.96,36.96v60.65
				c-0.16,22.62-10.05,38.6-32.11,39.3c-22.06-0.69-31.95-16.69-32.11-39.3c0,0,0-97.61,0-97.61l-13.36,0
				c-18.07,0-32.87,14.34-33.43,32.4c-1.28,41.35-4.24,99.45,16.23,122.2c29.69,32.98,85.44,35.79,118.35,7.22
				c15.42,13.39,35.86,19.89,56.29,19.61c23.18-0.29,46.34-9.29,62.14-26.84c0.21-0.23,0.42-0.51,0.63-0.85
				c15.15-17.93,16.93-57.46,16.37-92.65c0,0.1,0,0.15-0.01-0.05C516.34,318.68,515.49,296.44,515.49,280.91z M515.97,341.96
				c0,0.02,0,0.03,0,0.05C515.97,341.87,515.97,341.64,515.97,341.96z M709.42,316.13v145.48h11.67c18.6,0,33.68-15.08,33.68-33.68
				V280.91h-10.13C725.19,280.91,709.42,296.68,709.42,316.13z M729.67,272.81c3.65-3.69,5.47-8.23,5.47-13.63
				c0-5.32-1.82-9.81-5.47-13.46c-3.65-3.65-8.13-5.47-13.46-5.47c-5.4,0-9.92,1.82-13.57,5.47c-3.65,3.65-5.47,8.13-5.47,13.46
				c0,5.4,1.84,9.94,5.53,13.63c3.69,3.69,8.19,5.53,13.51,5.53C721.54,278.34,726.03,276.5,729.67,272.81z M1082.4,278.34
				c5.32,0,9.81-1.84,13.46-5.53c3.65-3.69,5.47-8.23,5.47-13.63c0-5.32-1.82-9.81-5.47-13.46c-3.65-3.65-8.13-5.47-13.46-5.47
				c-5.4,0-9.92,1.82-13.57,5.47c-3.65,3.65-5.47,8.13-5.47,13.46c0,5.4,1.84,9.94,5.53,13.63
				C1072.58,276.5,1077.08,278.34,1082.4,278.34z M1110.83,280.91c-19.45,0-35.22,15.77-35.22,35.22v145.48h11.67
				c18.6,0,33.68-15.08,33.68-33.68V280.91H1110.83z M913.19,293.03h-35.41c-12.76,0-24.81,5.83-32.73,15.84l-34.56,43.67V235.96h0
				c-25.05,0-45.35,20.3-45.35,45.35V461.4h0c25.05,0,45.35-20.3,45.35-45.35v-21.38l49.55,65.74
				c11.59,15.38,29.73,24.42,48.99,24.42h25.19l-87.42-112.57L913.19,293.03z M1068.72,293.03h-35.41
				c-12.76,0-24.81,5.83-32.73,15.84l-34.56,43.67V235.96c-25.05,0-45.35,20.3-45.35,45.35V461.4h0c25.05,0,45.35-20.3,45.35-45.35
				v-21.38l49.55,65.74c11.59,15.38,29.73,24.42,48.99,24.42h25.19l-87.42-112.57L1068.72,293.03z M613.04,277.83
				c-26.37,0-47.79,8.59-64.24,25.77c-16.45,17.18-24.68,39.62-24.68,67.33c0,27.58,8.44,49.81,25.32,66.69
				c16.88,16.88,38.87,25.32,65.97,25.32c32.4,0,64.55-18.15,69.47-21.03c0.41-0.24,0.6-0.7,0.5-1.16
				c-0.42-1.78-1.92-6.64-7.04-14.49c-7.14-10.97-22.2-13.88-35.83-8.49c-0.38,0.15-0.76,0.3-1.14,0.44
				c-7.86,2.96-15.61,4.45-23.23,4.45c-11.74,0-21.6-3.02-29.58-9.07c-7.98-6.05-13.19-15.18-15.61-27.4h109.79
				c8.72,0,15.79-7.07,15.79-15.78l0-0.18c-0.12-27.46-8.08-49.72-23.86-66.78C658.87,286.36,638.33,277.83,613.04,277.83z
				 M569.29,353.86c2.56-12.56,7.76-22.32,15.6-29.28c7.83-6.96,18.16-10.44,30.99-10.44c11.97,0,21.83,3.45,29.59,10.34
				c7.76,6.9,12.93,16.69,15.49,29.38H569.29z"/>
		</g>
	</g>
	
		<linearGradient id="SVGID_00000093145550392968408190000011016081887635543212_" gradientUnits="userSpaceOnUse" x1="258.7744" y1="513.8834" x2="288.206" y2="513.8834">
		<stop  offset="0" style="stop-color:#3D6E3D"/>
		<stop  offset="0.995" style="stop-color:#22336C"/>
	</linearGradient>
	<path style="fill:url(#SVGID_00000093145550392968408190000011016081887635543212_);" d="M263.49,516.69
		c0,1.52,0.22,2.94,0.66,4.26c0.44,1.32,1.09,2.46,1.95,3.43c0.86,0.97,1.9,1.73,3.14,2.29c1.23,0.55,2.65,0.83,4.23,0.83
		c1.7,0,3.19-0.28,4.45-0.84c1.27-0.56,2.31-1.33,3.14-2.3c0.83-0.97,1.44-2.11,1.85-3.43c0.41-1.32,0.61-2.73,0.61-4.23v-19.9
		c0-0.29,0.11-0.54,0.32-0.75c0.22-0.21,0.48-0.31,0.81-0.31h2.31c0.3,0,0.58,0.09,0.84,0.29c0.26,0.19,0.39,0.45,0.39,0.77v20.55
		c0,2.17-0.39,4.15-1.15,5.96c-0.77,1.81-1.83,3.35-3.17,4.65c-1.34,1.29-2.9,2.3-4.69,3.02c-1.79,0.72-3.7,1.08-5.72,1.08
		c-2.02,0-3.92-0.38-5.7-1.15c-1.78-0.77-3.34-1.83-4.68-3.17c-1.34-1.34-2.39-2.9-3.17-4.68c-0.77-1.78-1.15-3.68-1.15-5.7v-20.55
		c0-0.24,0.09-0.48,0.28-0.71s0.43-0.35,0.73-0.35h2.58c0.24,0,0.49,0.1,0.75,0.31c0.26,0.21,0.39,0.46,0.39,0.75V516.69z"/>
	
		<linearGradient id="SVGID_00000097501480339753679410000007496424278989685671_" gradientUnits="userSpaceOnUse" x1="300.2636" y1="513.5949" x2="330.7073" y2="513.5949">
		<stop  offset="0" style="stop-color:#3D6E3D"/>
		<stop  offset="0.995" style="stop-color:#22336C"/>
	</linearGradient>
	<path style="fill:url(#SVGID_00000097501480339753679410000007496424278989685671_);" d="M326.79,531.46
		c-0.35,0-0.66-0.18-0.92-0.53l-21.01-28.16v27.63c0,0.71-0.37,1.06-1.11,1.06h-2.43c-0.71,0-1.06-0.35-1.06-1.06v-33.57
		c0-0.32,0.1-0.58,0.29-0.79c0.19-0.21,0.45-0.31,0.77-0.31h3.23c0.42,0,0.75,0.17,1.01,0.53l20.48,27.22v-26.86
		c0.09-0.59,0.45-0.89,1.06-0.89h2.43c0.29,0,0.56,0.09,0.81,0.29c0.25,0.19,0.37,0.45,0.37,0.77v33.62c0,0.71-0.39,1.06-1.18,1.06
		H326.79z"/>
	
		<linearGradient id="SVGID_00000119098969390407376460000009760234584538621315_" gradientUnits="userSpaceOnUse" x1="343.1727" y1="513.5949" x2="347.8426" y2="513.5949">
		<stop  offset="0" style="stop-color:#3D6E3D"/>
		<stop  offset="0.995" style="stop-color:#22336C"/>
	</linearGradient>
	<path style="fill:url(#SVGID_00000119098969390407376460000009760234584538621315_);" d="M343.17,496.79
		c0-0.29,0.09-0.54,0.28-0.75c0.18-0.21,0.45-0.31,0.78-0.31h2.5c0.29,0,0.54,0.09,0.77,0.29c0.23,0.19,0.34,0.45,0.34,0.77v33.62
		c0,0.71-0.37,1.06-1.11,1.06h-2.5c-0.71,0-1.06-0.35-1.06-1.06V496.79z"/>
	
		<linearGradient id="SVGID_00000091016088871110574670000004388469590146658195_" gradientUnits="userSpaceOnUse" x1="360.4522" y1="513.5949" x2="385.3358" y2="513.5949">
		<stop  offset="0" style="stop-color:#3D6E3D"/>
		<stop  offset="0.995" style="stop-color:#22336C"/>
	</linearGradient>
	<path style="fill:url(#SVGID_00000091016088871110574670000004388469590146658195_);" d="M360.45,496.83
		c0-0.74,0.35-1.11,1.06-1.11h22.72c0.74,0,1.11,0.38,1.11,1.15v2.38c0,0.31-0.1,0.57-0.3,0.8c-0.2,0.22-0.47,0.34-0.81,0.34h-19.11
		v11.82c2.55,0,5.06,0,7.53,0.01c2.47,0.01,4.99,0.01,7.56,0.01c0.29,0,0.54,0.09,0.75,0.27c0.21,0.17,0.31,0.46,0.31,0.87v2.43
		c0,0.29-0.09,0.54-0.28,0.77c-0.18,0.23-0.45,0.34-0.78,0.34h-15.09v13.55c0,0.67-0.38,1.01-1.13,1.01h-2.48
		c-0.71,0-1.06-0.34-1.06-1.01V496.83z"/>
	
		<linearGradient id="SVGID_00000062185670522028226780000017591470329839610296_" gradientUnits="userSpaceOnUse" x1="391.5336" y1="513.6185" x2="428.2833" y2="513.6185">
		<stop  offset="0" style="stop-color:#3D6E3D"/>
		<stop  offset="0.995" style="stop-color:#22336C"/>
	</linearGradient>
	<path style="fill:url(#SVGID_00000062185670522028226780000017591470329839610296_);" d="M409.92,495.24
		c1.68,0,3.31,0.22,4.87,0.65c1.57,0.43,3.03,1.05,4.38,1.85c1.36,0.81,2.6,1.76,3.72,2.88c1.12,1.12,2.08,2.36,2.88,3.73
		c0.79,1.37,1.41,2.84,1.85,4.42c0.44,1.57,0.66,3.21,0.66,4.91c0,1.68-0.22,3.31-0.65,4.87c-0.43,1.56-1.05,3.02-1.85,4.38
		c-0.8,1.36-1.76,2.59-2.88,3.71c-1.11,1.11-2.35,2.07-3.72,2.86c-1.37,0.79-2.83,1.41-4.4,1.84c-1.57,0.43-3.21,0.65-4.91,0.65
		s-3.33-0.22-4.9-0.65s-3.03-1.05-4.38-1.86c-1.36-0.8-2.59-1.76-3.71-2.87c-1.12-1.11-2.07-2.35-2.86-3.71
		c-0.79-1.36-1.41-2.82-1.84-4.38c-0.44-1.56-0.65-3.2-0.65-4.9c0-1.68,0.22-3.31,0.65-4.87c0.43-1.56,1.05-3.03,1.85-4.39
		c0.8-1.36,1.76-2.61,2.87-3.73c1.12-1.12,2.35-2.08,3.72-2.87c1.36-0.8,2.83-1.41,4.39-1.86
		C406.59,495.46,408.22,495.24,409.92,495.24z M396.16,513.56c0,1.27,0.16,2.48,0.49,3.65c0.33,1.16,0.79,2.25,1.38,3.27
		c0.59,1.02,1.31,1.94,2.14,2.78c0.83,0.84,1.76,1.55,2.78,2.14c1.02,0.59,2.11,1.06,3.27,1.39c1.16,0.33,2.38,0.49,3.65,0.49
		c1.25,0,2.46-0.16,3.64-0.49c1.17-0.33,2.26-0.79,3.27-1.39c1.01-0.59,1.93-1.31,2.77-2.14c0.83-0.84,1.55-1.76,2.14-2.78
		c0.59-1.02,1.05-2.11,1.39-3.27c0.33-1.16,0.49-2.38,0.49-3.65c0-1.89-0.36-3.67-1.08-5.33c-0.72-1.66-1.7-3.11-2.94-4.35
		c-1.24-1.23-2.68-2.21-4.34-2.93c-1.66-0.72-3.44-1.08-5.33-1.08c-1.27,0-2.48,0.16-3.65,0.49c-1.16,0.33-2.26,0.79-3.27,1.39
		c-1.02,0.59-1.95,1.31-2.78,2.14c-0.84,0.84-1.55,1.76-2.14,2.77c-0.59,1.01-1.05,2.1-1.38,3.27
		C396.32,511.1,396.16,512.31,396.16,513.56z"/>
	
		<linearGradient id="SVGID_00000075873436536763896270000011785321823497321606_" gradientUnits="userSpaceOnUse" x1="438.433" y1="513.5949" x2="464.7613" y2="513.5949">
		<stop  offset="0" style="stop-color:#3D6E3D"/>
		<stop  offset="0.995" style="stop-color:#22336C"/>
	</linearGradient>
	<path style="fill:url(#SVGID_00000075873436536763896270000011785321823497321606_);" d="M438.43,496.88
		c0-0.77,0.35-1.15,1.06-1.15h13.89c1.6,0,3.1,0.3,4.48,0.9c1.38,0.6,2.58,1.42,3.61,2.46c1.03,1.03,1.83,2.25,2.42,3.63
		c0.58,1.39,0.88,2.87,0.88,4.44c0,1.12-0.16,2.2-0.47,3.24c-0.31,1.04-0.75,1.99-1.31,2.88c-0.56,0.88-1.24,1.67-2.02,2.37
		c-0.79,0.7-1.66,1.28-2.62,1.75l6.35,13.02v0.31c0,0.5-0.3,0.75-0.89,0.75h-2.91c-0.5,0-0.88-0.3-1.16-0.89l-5.78-12.13
		c-0.13,0.01-0.27,0.02-0.42,0.02c-0.15,0-0.37,0.01-0.65,0.01c-0.28,0.01-0.65,0.01-1.12,0.01c-0.47,0-1.08,0-1.84,0
		c-0.76,0-1.7,0-2.8,0c-1.11,0-2.45,0-4.02,0v11.91c0,0.71-0.37,1.06-1.11,1.06h-2.5c-0.71,0-1.06-0.35-1.06-1.06V496.88z
		 M460.14,507.11c0-0.89-0.17-1.74-0.52-2.55c-0.35-0.82-0.82-1.54-1.42-2.17c-0.6-0.62-1.32-1.12-2.14-1.5
		c-0.83-0.38-1.72-0.57-2.68-0.57H443.1v13.57h10.37c0.94,0,1.83-0.19,2.65-0.55c0.82-0.37,1.52-0.87,2.12-1.49s1.06-1.35,1.4-2.17
		C459.97,508.87,460.14,508.01,460.14,507.11z"/>
	
		<linearGradient id="SVGID_00000093168774420134891670000005898794678134156711_" gradientUnits="userSpaceOnUse" x1="474.6282" y1="513.5949" x2="515.0109" y2="513.5949">
		<stop  offset="0" style="stop-color:#3D6E3D"/>
		<stop  offset="0.995" style="stop-color:#22336C"/>
	</linearGradient>
	<path style="fill:url(#SVGID_00000093168774420134891670000005898794678134156711_);" d="M493.62,529.92
		c-0.35,0-0.67-0.29-0.94-0.89l-10.56-25.56l-2.82,26.93c0,0.71-0.35,1.06-1.06,1.06h-2.5c-0.74,0-1.11-0.35-1.11-1.06l3.8-33.62
		c0-0.32,0.12-0.58,0.36-0.77c0.24-0.19,0.5-0.29,0.79-0.29h3.71c0.51,0,0.87,0.3,1.06,0.89l10.44,25.53l10.54-25.53
		c0.08-0.29,0.21-0.51,0.39-0.66c0.18-0.15,0.38-0.23,0.6-0.23h3.83c0.34,0,0.6,0.1,0.78,0.31c0.18,0.21,0.28,0.46,0.28,0.75
		l3.8,33.62c0,0.71-0.35,1.06-1.06,1.06h-2.5c-0.74,0-1.11-0.35-1.11-1.06l-2.81-26.93l-10.61,25.56c-0.27,0.6-0.59,0.89-0.96,0.89
		H493.62z"/>
	
		<linearGradient id="SVGID_00000121960436320597619750000011668886186725012099_" gradientUnits="userSpaceOnUse" x1="525.7456" y1="513.5949" x2="551.0146" y2="513.5949">
		<stop  offset="0" style="stop-color:#3D6E3D"/>
		<stop  offset="0.995" style="stop-color:#22336C"/>
	</linearGradient>
	<path style="fill:url(#SVGID_00000121960436320597619750000011668886186725012099_);" d="M549.86,495.73
		c0.74,0,1.11,0.38,1.11,1.15v2.38c0,0.31-0.09,0.57-0.28,0.8c-0.18,0.22-0.48,0.34-0.88,0.34h-19.4v9.89h15.26
		c0.29,0,0.54,0.08,0.75,0.25c0.21,0.17,0.31,0.46,0.31,0.86v2.46c0,0.29-0.09,0.54-0.26,0.77c-0.18,0.23-0.44,0.34-0.79,0.34
		h-15.26v11.84h19.5c0.74,0,1.11,0.38,1.11,1.13v2.48c0,0.71-0.35,1.06-1.06,1.06H526.8c-0.71,0-1.06-0.34-1.06-1.01v-33.62
		c0-0.74,0.35-1.11,1.06-1.11H549.86z"/>
	
		<linearGradient id="SVGID_00000145769726761207594550000000323053504238337180_" gradientUnits="userSpaceOnUse" x1="560.1699" y1="513.57" x2="586.9686" y2="513.57">
		<stop  offset="0" style="stop-color:#3D6E3D"/>
		<stop  offset="0.995" style="stop-color:#22336C"/>
	</linearGradient>
	<path style="fill:url(#SVGID_00000145769726761207594550000000323053504238337180_);" d="M581.99,503.52
		c-0.23-0.14-0.59-0.43-1.11-0.85c-0.51-0.42-1.14-0.84-1.89-1.27s-1.58-0.82-2.52-1.17c-0.93-0.34-1.93-0.52-3.01-0.52
		c-1.27,0-2.36,0.15-3.27,0.46c-0.91,0.31-1.67,0.71-2.26,1.22c-0.59,0.5-1.03,1.08-1.31,1.71c-0.28,0.63-0.42,1.27-0.42,1.91
		c0,0.9,0.3,1.65,0.89,2.26c0.59,0.61,1.38,1.14,2.36,1.59c0.98,0.45,2.09,0.86,3.33,1.22c1.24,0.36,2.51,0.74,3.8,1.14
		c1.29,0.4,2.56,0.85,3.8,1.35c1.24,0.5,2.35,1.12,3.33,1.86c0.98,0.74,1.76,1.62,2.36,2.65c0.59,1.03,0.89,2.27,0.89,3.73
		c0,1.69-0.35,3.21-1.05,4.59c-0.7,1.37-1.65,2.54-2.86,3.52c-1.21,0.97-2.64,1.72-4.27,2.25c-1.64,0.53-3.39,0.8-5.27,0.8
		c-1.25,0-2.49-0.14-3.72-0.42c-1.23-0.28-2.41-0.69-3.54-1.23c-1.13-0.54-2.19-1.19-3.17-1.96c-0.98-0.77-1.85-1.65-2.62-2.65
		c-0.21-0.26-0.31-0.51-0.3-0.77c0.01-0.26,0.15-0.5,0.42-0.72l1.9-1.59c0.27-0.22,0.54-0.32,0.8-0.3c0.26,0.02,0.49,0.16,0.7,0.42
		l0.31,0.31c0.67,0.76,1.44,1.41,2.3,1.96c0.86,0.55,1.72,1.01,2.57,1.37c0.86,0.36,1.68,0.63,2.47,0.81c0.79,0.17,1.45,0.26,2,0.26
		c0.98,0,1.98-0.13,3.01-0.39c1.03-0.26,1.97-0.65,2.82-1.18c0.85-0.53,1.55-1.2,2.09-2.01c0.54-0.81,0.82-1.76,0.82-2.85
		c0-0.92-0.27-1.69-0.81-2.32c-0.54-0.63-1.26-1.19-2.18-1.66c-0.92-0.47-1.99-0.9-3.21-1.28c-1.23-0.38-2.54-0.77-3.94-1.19
		c-1.92-0.56-3.58-1.15-4.96-1.77c-1.38-0.62-2.51-1.3-3.4-2.04c-0.89-0.75-1.54-1.58-1.96-2.5c-0.42-0.92-0.63-1.96-0.63-3.12
		c0-1.46,0.29-2.79,0.88-4.01c0.58-1.21,1.41-2.26,2.49-3.14c1.08-0.89,2.37-1.57,3.89-2.06c1.52-0.49,3.22-0.74,5.09-0.74
		c1.01,0,2.06,0.13,3.15,0.39c1.09,0.26,2.16,0.61,3.19,1.07c1.03,0.46,2,1,2.91,1.64c0.91,0.64,1.69,1.34,2.34,2.11
		c0.23,0.24,0.34,0.49,0.35,0.76c0.01,0.26-0.12,0.52-0.37,0.76l-1.71,1.64c-0.26,0.24-0.52,0.35-0.78,0.34
		C582.46,503.87,582.21,503.75,581.99,503.52z"/>
</g>
</svg>
